<svg width="32" height="30" viewBox="0 0 32 30" fill="none" xmlns="http://www.w3.org/2000/svg">
<g clip-path="url(#clip0_1266_264)">
<path d="M13.4845 11.3V18.7C13.4845 19.225 14.0883 19.5125 14.5033 19.1875L19.1574 15.4875C19.4719 15.2375 19.4719 14.7625 19.1574 14.5125L14.5033 10.8125C14.0883 10.4875 13.4845 10.775 13.4845 11.3V11.3ZM24.8052 3.75H7.19517C5.81152 3.75 4.67944 4.875 4.67944 6.25V23.75C4.67944 25.125 5.81152 26.25 7.19517 26.25H24.8052C26.1889 26.25 27.321 25.125 27.321 23.75V6.25C27.321 4.875 26.1889 3.75 24.8052 3.75ZM23.5474 23.75H8.45303C7.76121 23.75 7.19517 23.1875 7.19517 22.5V7.5C7.19517 6.8125 7.76121 6.25 8.45303 6.25H23.5474C24.2392 6.25 24.8052 6.8125 24.8052 7.5V22.5C24.8052 23.1875 24.2392 23.75 23.5474 23.75Z" fill="white"/>
</g>
<defs>
<clipPath id="clip0_1266_264">
<rect width="30.1887" height="30" fill="white" transform="translate(0.905762)"/>
</clipPath>
</defs>
</svg>
