<svg width="31" height="30" viewBox="0 0 31 30" fill="none" xmlns="http://www.w3.org/2000/svg">
<g clip-path="url(#clip0_1266_101)">
<path d="M24.3523 3.75H6.74229C5.34606 3.75 4.22656 4.875 4.22656 6.25V23.75C4.22656 25.125 5.34606 26.25 6.74229 26.25H24.3523C25.736 26.25 26.8681 25.125 26.8681 23.75V6.25C26.8681 4.875 25.7486 3.75 24.3523 3.75ZM24.3523 23.75H6.74229V8.75H24.3523V23.75ZM20.5788 15H10.5159C9.82405 15 9.25801 14.4375 9.25801 13.75C9.25801 13.0625 9.82405 12.5 10.5159 12.5H20.5788C21.2706 12.5 21.8366 13.0625 21.8366 13.75C21.8366 14.4375 21.2706 15 20.5788 15ZM15.5473 20H10.5159C9.82405 20 9.25801 19.4375 9.25801 18.75C9.25801 18.0625 9.82405 17.5 10.5159 17.5H15.5473C16.2391 17.5 16.8052 18.0625 16.8052 18.75C16.8052 19.4375 16.2391 20 15.5473 20Z" fill="white"/>
</g>
<defs>
<clipPath id="clip0_1266_101">
<rect width="30.1887" height="30" fill="white" transform="translate(0.452881)"/>
</clipPath>
</defs>
</svg>
