<svg width="33" height="32" viewBox="0 0 33 32" fill="none" xmlns="http://www.w3.org/2000/svg">
<g clip-path="url(#clip0_1266_420)">
<path d="M4.77148 23.9079C4.77148 24.6385 5.36553 25.2362 6.09158 25.2362H12.6921V22.5797H6.09158C5.36553 22.5797 4.77148 23.1774 4.77148 23.9079ZM4.77148 7.96933C4.77148 8.69985 5.36553 9.29755 6.09158 9.29755H17.9724V6.64111H6.09158C5.36553 6.64111 4.77148 7.23881 4.77148 7.96933ZM17.9724 26.5644V25.2362H27.2131C27.9392 25.2362 28.5332 24.6385 28.5332 23.9079C28.5332 23.1774 27.9392 22.5797 27.2131 22.5797H17.9724V21.2515C17.9724 20.521 17.3784 19.9233 16.6523 19.9233C15.9263 19.9233 15.3322 20.521 15.3322 21.2515V26.5644C15.3322 27.2949 15.9263 27.8926 16.6523 27.8926C17.3784 27.8926 17.9724 27.2949 17.9724 26.5644ZM10.0519 13.2822V14.6104H6.09158C5.36553 14.6104 4.77148 15.2081 4.77148 15.9386C4.77148 16.6692 5.36553 17.2669 6.09158 17.2669H10.0519V18.5951C10.0519 19.3256 10.6459 19.9233 11.372 19.9233C12.098 19.9233 12.6921 19.3256 12.6921 18.5951V13.2822C12.6921 12.5517 12.098 11.954 11.372 11.954C10.6459 11.954 10.0519 12.5517 10.0519 13.2822ZM28.5332 15.9386C28.5332 15.2081 27.9392 14.6104 27.2131 14.6104H15.3322V17.2669H27.2131C27.9392 17.2669 28.5332 16.6692 28.5332 15.9386ZM21.9327 11.954C22.6588 11.954 23.2528 11.3563 23.2528 10.6258V9.29755H27.2131C27.9392 9.29755 28.5332 8.69985 28.5332 7.96933C28.5332 7.23881 27.9392 6.64111 27.2131 6.64111H23.2528V5.3129C23.2528 4.58238 22.6588 3.98468 21.9327 3.98468C21.2067 3.98468 20.6126 4.58238 20.6126 5.3129V10.6258C20.6126 11.3563 21.2067 11.954 21.9327 11.954Z" fill="#8E8E8D"/>
</g>
<defs>
<clipPath id="clip0_1266_420">
<rect width="31.6823" height="31.8772" fill="white" transform="translate(0.811279)"/>
</clipPath>
</defs>
</svg>
