<svg width="31" height="30" viewBox="0 0 31 30" fill="none" xmlns="http://www.w3.org/2000/svg">
<path d="M28.0313 13.75L2.87402 13.75" stroke="#8E8E8D" stroke-width="2" stroke-linecap="round"/>
<path d="M2.87402 8.68718C2.87402 7.58402 2.87402 7.03244 2.96126 6.57298C3.34527 4.55039 4.9373 2.9683 6.97262 2.58669C7.43497 2.5 7.99002 2.5 9.10012 2.5C9.58651 2.5 9.8297 2.5 10.0634 2.52172C11.0711 2.61536 12.0269 3.00879 12.806 3.65064C12.9867 3.79952 13.1587 3.97041 13.5026 4.31218L14.1948 5C15.2209 6.01972 15.734 6.52959 16.3484 6.86928C16.6859 7.05589 17.0439 7.20326 17.4153 7.30847C18.0915 7.5 18.8171 7.5 20.2683 7.5H20.7383C24.0494 7.5 25.705 7.5 26.7812 8.46183C26.8801 8.5503 26.9743 8.64392 27.0634 8.74229C28.0313 9.81169 28.0313 11.4569 28.0313 14.7474V17.5C28.0313 22.214 28.0313 24.5711 26.5576 26.0355C25.0839 27.5 22.7121 27.5 17.9684 27.5H12.9369C8.19322 27.5 5.82138 27.5 4.3477 26.0355C2.87402 24.5711 2.87402 22.214 2.87402 17.5V8.68718Z" stroke="#8E8E8D" stroke-width="2"/>
</svg>
