<svg width="31" height="30" viewBox="0 0 31 30" fill="none" xmlns="http://www.w3.org/2000/svg">
<g clip-path="url(#clip0_1_1261)">
<path d="M4.58496 22.5C4.58496 23.1875 5.151 23.75 5.84282 23.75H12.1321V21.25H5.84282C5.151 21.25 4.58496 21.8125 4.58496 22.5ZM4.58496 7.5C4.58496 8.1875 5.151 8.75 5.84282 8.75H17.1636V6.25H5.84282C5.151 6.25 4.58496 6.8125 4.58496 7.5ZM17.1636 25V23.75H25.9686C26.6604 23.75 27.2265 23.1875 27.2265 22.5C27.2265 21.8125 26.6604 21.25 25.9686 21.25H17.1636V20C17.1636 19.3125 16.5975 18.75 15.9057 18.75C15.2139 18.75 14.6479 19.3125 14.6479 20V25C14.6479 25.6875 15.2139 26.25 15.9057 26.25C16.5975 26.25 17.1636 25.6875 17.1636 25ZM9.61641 12.5V13.75H5.84282C5.151 13.75 4.58496 14.3125 4.58496 15C4.58496 15.6875 5.151 16.25 5.84282 16.25H9.61641V17.5C9.61641 18.1875 10.1824 18.75 10.8743 18.75C11.5661 18.75 12.1321 18.1875 12.1321 17.5V12.5C12.1321 11.8125 11.5661 11.25 10.8743 11.25C10.1824 11.25 9.61641 11.8125 9.61641 12.5ZM27.2265 15C27.2265 14.3125 26.6604 13.75 25.9686 13.75H14.6479V16.25H25.9686C26.6604 16.25 27.2265 15.6875 27.2265 15ZM20.9372 11.25C21.629 11.25 22.195 10.6875 22.195 10V8.75H25.9686C26.6604 8.75 27.2265 8.1875 27.2265 7.5C27.2265 6.8125 26.6604 6.25 25.9686 6.25H22.195V5C22.195 4.3125 21.629 3.75 20.9372 3.75C20.2453 3.75 19.6793 4.3125 19.6793 5V10C19.6793 10.6875 20.2453 11.25 20.9372 11.25Z" fill="white"/>
</g>
<defs>
<clipPath id="clip0_1_1261">
<rect width="30.1887" height="30" fill="white" transform="translate(0.811279)"/>
</clipPath>
</defs>
</svg>
