<svg width="32" height="30" viewBox="0 0 32 30" fill="none" xmlns="http://www.w3.org/2000/svg">
<path fill-rule="evenodd" clip-rule="evenodd" d="M15.088 5C12.3082 5 10.0566 7.2375 10.0566 10C10.0566 12.7625 12.3082 15 15.088 15C17.8679 15 20.1195 12.7625 20.1195 10C20.1195 7.2375 17.8679 5 15.088 5ZM17.6038 10C17.6038 8.625 16.4717 7.5 15.088 7.5C13.7044 7.5 12.5723 8.625 12.5723 10C12.5723 11.375 13.7044 12.5 15.088 12.5C16.4717 12.5 17.6038 11.375 17.6038 10ZM22.6352 21.25C22.3836 20.3625 18.4843 18.75 15.088 18.75C11.6918 18.75 7.79244 20.3625 7.54087 21.2625V22.5H22.6352V21.25ZM5.02515 21.25C5.02515 17.925 11.7295 16.25 15.088 16.25C18.4465 16.25 25.1509 17.925 25.1509 21.25V25H5.02515V21.25Z" fill="#8E8E8D"/>
</svg>
